<svg xmlns="http://www.w3.org/2000/svg" xmlns:xlink="http://www.w3.org/1999/xlink" width="740.894" zoomAndPan="magnify" viewBox="319.043 601.871 740.894 264.777" height="264.777" preserveAspectRatio="xMidYMid meet" version="1.0"><defs><g/><clipPath id="80144ae270"><path d="M 343.039062 625.871094 L 531 625.871094 L 531 842.621094 L 343.039062 842.621094 Z M 343.039062 625.871094 " clip-rule="nonzero"/></clipPath><clipPath id="afa0b877b9"><path d="M 476 625.871094 L 571 625.871094 L 571 743 L 476 743 Z M 476 625.871094 " clip-rule="nonzero"/></clipPath><clipPath id="041e6200a0"><rect x="0" width="435" y="0" height="245"/></clipPath><clipPath id="c905cf990f"><rect x="0" width="428" y="0" height="65"/></clipPath></defs><g clip-path="url(#80144ae270)"><path fill="#aa1e1e" d="M 403.109375 776.941406 L 495.058594 723.855469 L 495.058594 700.636719 L 475.125 689.128906 L 383.179688 742.214844 L 383.179688 703.085938 L 410.011719 687.597656 L 436.996094 672.015625 L 476.960938 648.941406 L 446.953125 631.621094 L 436.996094 625.871094 L 427.042969 631.621094 L 390.097656 652.949219 L 353.15625 674.277344 L 343.042969 680.117188 L 343.042969 788.402344 L 353.15625 794.242188 L 390.097656 815.570312 L 427.042969 836.898438 L 436.996094 842.648438 L 446.953125 836.898438 L 483.894531 815.570312 L 520.839844 794.242188 L 530.949219 788.402344 L 530.949219 742.261719 L 530.777344 742.363281 L 490.8125 765.429688 L 463.984375 780.925781 L 436.996094 796.503906 L 410.011719 780.925781 Z M 403.109375 776.941406 " fill-opacity="1" fill-rule="evenodd"/></g><g clip-path="url(#afa0b877b9)"><path fill="#0b3d91" d="M 530.777344 680.015625 L 530.777344 742.363281 L 530.949219 742.261719 L 570.914062 719.1875 L 570.914062 657.042969 L 560.804688 651.207031 L 523.859375 629.875 L 516.921875 625.871094 L 476.960938 648.941406 L 503.949219 664.523438 L 510.84375 668.507812 Z M 530.777344 680.015625 " fill-opacity="1" fill-rule="evenodd"/></g><path stroke-linecap="round" transform="matrix(0, 0.75, -0.75, 0, 596.96019, 625.875094)" fill="none" stroke-linejoin="miter" d="M 0.999875 0.999003 L 288.104066 0.999003 " stroke="#aa1e1e" stroke-width="2" stroke-opacity="1" stroke-miterlimit="4"/><g transform="matrix(1, 0, 0, 1, 621, 588)"><g clip-path="url(#041e6200a0)"><g fill="#0b3d91" fill-opacity="1"><g transform="translate(0.714589, 182.734023)"><g><path d="M 40.28125 -97.6875 L 40.28125 -73.125 L 79.875 -73.125 L 79.875 -50.3125 L 40.28125 -50.3125 L 40.28125 -23.6875 L 85.0625 -23.6875 L 85.0625 0 L 10.71875 0 L 10.71875 -121.375 L 85.0625 -121.375 L 85.0625 -97.6875 Z M 40.28125 -97.6875 "/></g></g></g><g fill="#0b3d91" fill-opacity="1"><g transform="translate(107.215657, 182.734023)"><g><path d="M 5.703125 -60.859375 C 5.703125 -72.847656 8.296875 -83.535156 13.484375 -92.921875 C 18.671875 -102.316406 25.898438 -109.632812 35.171875 -114.875 C 44.453125 -120.125 54.972656 -122.75 66.734375 -122.75 C 81.140625 -122.75 93.472656 -118.945312 103.734375 -111.34375 C 113.992188 -103.738281 120.851562 -93.363281 124.3125 -80.21875 L 91.8125 -80.21875 C 89.382812 -85.289062 85.953125 -89.148438 81.515625 -91.796875 C 77.078125 -94.453125 72.035156 -95.78125 66.390625 -95.78125 C 57.285156 -95.78125 49.90625 -92.609375 44.25 -86.265625 C 38.601562 -79.929688 35.78125 -71.460938 35.78125 -60.859375 C 35.78125 -50.253906 38.601562 -41.78125 44.25 -35.4375 C 49.90625 -29.101562 57.285156 -25.9375 66.390625 -25.9375 C 72.035156 -25.9375 77.078125 -27.257812 81.515625 -29.90625 C 85.953125 -32.5625 89.382812 -36.425781 91.8125 -41.5 L 124.3125 -41.5 C 120.851562 -28.351562 113.992188 -18.003906 103.734375 -10.453125 C 93.472656 -2.910156 81.140625 0.859375 66.734375 0.859375 C 54.972656 0.859375 44.453125 -1.757812 35.171875 -7 C 25.898438 -12.25 18.671875 -19.539062 13.484375 -28.875 C 8.296875 -38.207031 5.703125 -48.867188 5.703125 -60.859375 Z M 5.703125 -60.859375 "/></g></g></g><g fill="#0b3d91" fill-opacity="1"><g transform="translate(251.925475, 182.734023)"><g><path d="M 98.03125 -121.375 L 98.03125 -97.6875 L 65.875 -97.6875 L 65.875 0 L 36.3125 0 L 36.3125 -97.6875 L 4.15625 -97.6875 L 4.15625 -121.375 Z M 98.03125 -121.375 "/></g></g></g><g fill="#0b3d91" fill-opacity="1"><g transform="translate(367.071084, 182.734023)"><g><path d="M 40.28125 -121.375 L 40.28125 0 L 10.71875 0 L 10.71875 -121.375 Z M 40.28125 -121.375 "/></g></g></g></g></g><g transform="matrix(1, 0, 0, 1, 621, 783)"><g clip-path="url(#c905cf990f)"><g fill="#aa1e1e" fill-opacity="1"><g transform="translate(0.714589, 47.746733)"><g><path d="M 22.75 -5.65625 L 10.796875 -5.65625 L 8.890625 0 L 0.734375 0 L 12.3125 -32 L 21.328125 -32 L 32.90625 0 L 24.65625 0 Z M 20.734375 -11.671875 L 16.765625 -23.375 L 12.859375 -11.671875 Z M 20.734375 -11.671875 "/></g></g></g><g fill="#aa1e1e" fill-opacity="1"><g transform="translate(44.236612, 47.746733)"><g><path d="M 14.40625 0.3125 C 12.0625 0.3125 9.960938 -0.0625 8.109375 -0.8125 C 6.253906 -1.570312 4.769531 -2.695312 3.65625 -4.1875 C 2.550781 -5.675781 1.972656 -7.472656 1.921875 -9.578125 L 10.203125 -9.578125 C 10.328125 -8.390625 10.738281 -7.484375 11.4375 -6.859375 C 12.132812 -6.234375 13.046875 -5.921875 14.171875 -5.921875 C 15.328125 -5.921875 16.238281 -6.1875 16.90625 -6.71875 C 17.570312 -7.25 17.90625 -7.988281 17.90625 -8.9375 C 17.90625 -9.726562 17.640625 -10.378906 17.109375 -10.890625 C 16.578125 -11.410156 15.925781 -11.835938 15.15625 -12.171875 C 14.382812 -12.503906 13.28125 -12.882812 11.84375 -13.3125 C 9.78125 -13.945312 8.09375 -14.582031 6.78125 -15.21875 C 5.476562 -15.863281 4.351562 -16.804688 3.40625 -18.046875 C 2.46875 -19.296875 2 -20.921875 2 -22.921875 C 2 -25.898438 3.078125 -28.234375 5.234375 -29.921875 C 7.398438 -31.609375 10.210938 -32.453125 13.671875 -32.453125 C 17.191406 -32.453125 20.03125 -31.609375 22.1875 -29.921875 C 24.351562 -28.234375 25.507812 -25.882812 25.65625 -22.875 L 17.234375 -22.875 C 17.171875 -23.914062 16.789062 -24.726562 16.09375 -25.3125 C 15.394531 -25.90625 14.5 -26.203125 13.40625 -26.203125 C 12.457031 -26.203125 11.691406 -25.953125 11.109375 -25.453125 C 10.535156 -24.953125 10.25 -24.234375 10.25 -23.296875 C 10.25 -22.253906 10.734375 -21.445312 11.703125 -20.875 C 12.679688 -20.300781 14.203125 -19.675781 16.265625 -19 C 18.335938 -18.300781 20.019531 -17.632812 21.3125 -17 C 22.601562 -16.363281 23.71875 -15.4375 24.65625 -14.21875 C 25.601562 -13 26.078125 -11.4375 26.078125 -9.53125 C 26.078125 -7.707031 25.613281 -6.050781 24.6875 -4.5625 C 23.757812 -3.070312 22.410156 -1.882812 20.640625 -1 C 18.878906 -0.125 16.800781 0.3125 14.40625 0.3125 Z M 14.40625 0.3125 "/></g></g></g><g fill="#aa1e1e" fill-opacity="1"><g transform="translate(82.19907, 47.746733)"><g><path d="M 14.40625 0.3125 C 12.0625 0.3125 9.960938 -0.0625 8.109375 -0.8125 C 6.253906 -1.570312 4.769531 -2.695312 3.65625 -4.1875 C 2.550781 -5.675781 1.972656 -7.472656 1.921875 -9.578125 L 10.203125 -9.578125 C 10.328125 -8.390625 10.738281 -7.484375 11.4375 -6.859375 C 12.132812 -6.234375 13.046875 -5.921875 14.171875 -5.921875 C 15.328125 -5.921875 16.238281 -6.1875 16.90625 -6.71875 C 17.570312 -7.25 17.90625 -7.988281 17.90625 -8.9375 C 17.90625 -9.726562 17.640625 -10.378906 17.109375 -10.890625 C 16.578125 -11.410156 15.925781 -11.835938 15.15625 -12.171875 C 14.382812 -12.503906 13.28125 -12.882812 11.84375 -13.3125 C 9.78125 -13.945312 8.09375 -14.582031 6.78125 -15.21875 C 5.476562 -15.863281 4.351562 -16.804688 3.40625 -18.046875 C 2.46875 -19.296875 2 -20.921875 2 -22.921875 C 2 -25.898438 3.078125 -28.234375 5.234375 -29.921875 C 7.398438 -31.609375 10.210938 -32.453125 13.671875 -32.453125 C 17.191406 -32.453125 20.03125 -31.609375 22.1875 -29.921875 C 24.351562 -28.234375 25.507812 -25.882812 25.65625 -22.875 L 17.234375 -22.875 C 17.171875 -23.914062 16.789062 -24.726562 16.09375 -25.3125 C 15.394531 -25.90625 14.5 -26.203125 13.40625 -26.203125 C 12.457031 -26.203125 11.691406 -25.953125 11.109375 -25.453125 C 10.535156 -24.953125 10.25 -24.234375 10.25 -23.296875 C 10.25 -22.253906 10.734375 -21.445312 11.703125 -20.875 C 12.679688 -20.300781 14.203125 -19.675781 16.265625 -19 C 18.335938 -18.300781 20.019531 -17.632812 21.3125 -17 C 22.601562 -16.363281 23.71875 -15.4375 24.65625 -14.21875 C 25.601562 -13 26.078125 -11.4375 26.078125 -9.53125 C 26.078125 -7.707031 25.613281 -6.050781 24.6875 -4.5625 C 23.757812 -3.070312 22.410156 -1.882812 20.640625 -1 C 18.878906 -0.125 16.800781 0.3125 14.40625 0.3125 Z M 14.40625 0.3125 "/></g></g></g><g fill="#aa1e1e" fill-opacity="1"><g transform="translate(120.161528, 47.746733)"><g><path d="M 17.953125 0.3125 C 14.953125 0.3125 12.195312 -0.382812 9.6875 -1.78125 C 7.175781 -3.175781 5.179688 -5.125 3.703125 -7.625 C 2.234375 -10.132812 1.5 -12.957031 1.5 -16.09375 C 1.5 -19.21875 2.234375 -22.023438 3.703125 -24.515625 C 5.179688 -27.015625 7.175781 -28.960938 9.6875 -30.359375 C 12.195312 -31.753906 14.953125 -32.453125 17.953125 -32.453125 C 20.960938 -32.453125 23.71875 -31.753906 26.21875 -30.359375 C 28.726562 -28.960938 30.707031 -27.015625 32.15625 -24.515625 C 33.601562 -22.023438 34.328125 -19.21875 34.328125 -16.09375 C 34.328125 -12.957031 33.59375 -10.132812 32.125 -7.625 C 30.664062 -5.125 28.691406 -3.175781 26.203125 -1.78125 C 23.710938 -0.382812 20.960938 0.3125 17.953125 0.3125 Z M 17.953125 -6.796875 C 20.503906 -6.796875 22.546875 -7.644531 24.078125 -9.34375 C 25.617188 -11.039062 26.390625 -13.289062 26.390625 -16.09375 C 26.390625 -18.914062 25.617188 -21.171875 24.078125 -22.859375 C 22.546875 -24.546875 20.503906 -25.390625 17.953125 -25.390625 C 15.367188 -25.390625 13.3125 -24.550781 11.78125 -22.875 C 10.25 -21.207031 9.484375 -18.945312 9.484375 -16.09375 C 9.484375 -13.257812 10.25 -11 11.78125 -9.3125 C 13.3125 -7.632812 15.367188 -6.796875 17.953125 -6.796875 Z M 17.953125 -6.796875 "/></g></g></g><g fill="#aa1e1e" fill-opacity="1"><g transform="translate(165.916488, 47.746733)"><g><path d="M 1.5 -16.046875 C 1.5 -19.203125 2.179688 -22.019531 3.546875 -24.5 C 4.921875 -26.976562 6.828125 -28.90625 9.265625 -30.28125 C 11.710938 -31.664062 14.488281 -32.359375 17.59375 -32.359375 C 21.394531 -32.359375 24.644531 -31.351562 27.34375 -29.34375 C 30.050781 -27.34375 31.859375 -24.609375 32.765625 -21.140625 L 24.203125 -21.140625 C 23.566406 -22.484375 22.660156 -23.503906 21.484375 -24.203125 C 20.316406 -24.898438 18.988281 -25.25 17.5 -25.25 C 15.101562 -25.25 13.160156 -24.410156 11.671875 -22.734375 C 10.179688 -21.066406 9.4375 -18.835938 9.4375 -16.046875 C 9.4375 -13.242188 10.179688 -11.007812 11.671875 -9.34375 C 13.160156 -7.675781 15.101562 -6.84375 17.5 -6.84375 C 18.988281 -6.84375 20.316406 -7.191406 21.484375 -7.890625 C 22.660156 -8.585938 23.566406 -9.601562 24.203125 -10.9375 L 32.765625 -10.9375 C 31.859375 -7.476562 30.050781 -4.75 27.34375 -2.75 C 24.644531 -0.757812 21.394531 0.234375 17.59375 0.234375 C 14.488281 0.234375 11.710938 -0.457031 9.265625 -1.84375 C 6.828125 -3.226562 4.921875 -5.148438 3.546875 -7.609375 C 2.179688 -10.066406 1.5 -12.878906 1.5 -16.046875 Z M 1.5 -16.046875 "/></g></g></g><g fill="#aa1e1e" fill-opacity="1"><g transform="translate(210.577768, 47.746733)"><g><path d="M 10.625 -32 L 10.625 0 L 2.828125 0 L 2.828125 -32 Z M 10.625 -32 "/></g></g></g><g fill="#aa1e1e" fill-opacity="1"><g transform="translate(233.95778, 47.746733)"><g><path d="M 22.75 -5.65625 L 10.796875 -5.65625 L 8.890625 0 L 0.734375 0 L 12.3125 -32 L 21.328125 -32 L 32.90625 0 L 24.65625 0 Z M 20.734375 -11.671875 L 16.765625 -23.375 L 12.859375 -11.671875 Z M 20.734375 -11.671875 "/></g></g></g><g fill="#aa1e1e" fill-opacity="1"><g transform="translate(277.479802, 47.746733)"><g><path d="M 25.84375 -32 L 25.84375 -25.75 L 17.359375 -25.75 L 17.359375 0 L 9.578125 0 L 9.578125 -25.75 L 1.09375 -25.75 L 1.09375 -32 Z M 25.84375 -32 "/></g></g></g><g fill="#aa1e1e" fill-opacity="1"><g transform="translate(314.348569, 47.746733)"><g><path d="M 10.625 -32 L 10.625 0 L 2.828125 0 L 2.828125 -32 Z M 10.625 -32 "/></g></g></g><g fill="#aa1e1e" fill-opacity="1"><g transform="translate(337.728582, 47.746733)"><g><path d="M 17.953125 0.3125 C 14.953125 0.3125 12.195312 -0.382812 9.6875 -1.78125 C 7.175781 -3.175781 5.179688 -5.125 3.703125 -7.625 C 2.234375 -10.132812 1.5 -12.957031 1.5 -16.09375 C 1.5 -19.21875 2.234375 -22.023438 3.703125 -24.515625 C 5.179688 -27.015625 7.175781 -28.960938 9.6875 -30.359375 C 12.195312 -31.753906 14.953125 -32.453125 17.953125 -32.453125 C 20.960938 -32.453125 23.71875 -31.753906 26.21875 -30.359375 C 28.726562 -28.960938 30.707031 -27.015625 32.15625 -24.515625 C 33.601562 -22.023438 34.328125 -19.21875 34.328125 -16.09375 C 34.328125 -12.957031 33.59375 -10.132812 32.125 -7.625 C 30.664062 -5.125 28.691406 -3.175781 26.203125 -1.78125 C 23.710938 -0.382812 20.960938 0.3125 17.953125 0.3125 Z M 17.953125 -6.796875 C 20.503906 -6.796875 22.546875 -7.644531 24.078125 -9.34375 C 25.617188 -11.039062 26.390625 -13.289062 26.390625 -16.09375 C 26.390625 -18.914062 25.617188 -21.171875 24.078125 -22.859375 C 22.546875 -24.546875 20.503906 -25.390625 17.953125 -25.390625 C 15.367188 -25.390625 13.3125 -24.550781 11.78125 -22.875 C 10.25 -21.207031 9.484375 -18.945312 9.484375 -16.09375 C 9.484375 -13.257812 10.25 -11 11.78125 -9.3125 C 13.3125 -7.632812 15.367188 -6.796875 17.953125 -6.796875 Z M 17.953125 -6.796875 "/></g></g></g><g fill="#aa1e1e" fill-opacity="1"><g transform="translate(383.483541, 47.746733)"><g><path d="M 31.453125 0 L 23.65625 0 L 10.625 -19.734375 L 10.625 0 L 2.828125 0 L 2.828125 -32 L 10.625 -32 L 23.65625 -12.171875 L 23.65625 -32 L 31.453125 -32 Z M 31.453125 0 "/></g></g></g></g></g></svg>